# AST/ASF file generated using VICON BodyLanguage
# -----------------------------------------------
:version 1.10
:name VICON
:units
  mass 1.0
  length 0.45
  angle deg
:documentation
   .ast/.asf automatically generated from VICON data using
   VICON BodyBuilder and BodyLanguage model FoxedUp or BRILLIANT.MOD
:root
   order TX TY TZ RX RY RZ
   axis XYZ
   position 0 0 0  
   orientation 0 0 0 
:bonedata
  begin
     id 1 
     name lhipjoint
     direction 0.734343 -0.627749 0.258209 
     length 2.5437 
     axis 0 0 0  XYZ
  end
  begin
     id 2 
     name lfemur
     direction 0.34202 -0.939693 0  
     length 6.7391  
     axis 0 0 20  XYZ
    dof rx ry rz
    limits (-160.0 20.0)
           (-70.0 70.0)
           (-60.0 70.0)
  end
  begin
     id 3 
     name ltibia
     direction 0.34202 -0.939693 0   
     length 7.21536   
     axis 0 0 20   XYZ
    dof rx
    limits (-10.0 170.0)
  end
  begin
     id 4 
     name lfoot
     direction 0.0489572 -0.134509 0.989702   
     length 1.61313   
     axis -90 7.62852e-016 20   XYZ
    dof rx rz
    limits (-45.0 90.0)
           (-70.0 20.0)
  end
  begin
     id 5 
     name ltoes
     direction 1.53451e-011 -4.21692e-011 1   
     length 0.823104   
     axis -90 7.62852e-016 20   XYZ
    dof rx
    limits (-90.0 20.0)
  end
  begin
     id 6 
     name rhipjoint
     direction -0.746398 -0.615468 0.253157   
     length 2.59446  
     axis 0 0 0  XYZ 
  end
  begin
     id 7 
     name rfemur
     direction -0.34202 -0.939693 0   
     length 6.7075   
     axis 0 0 -20   XYZ
    dof rx ry rz
    limits (-160.0 20.0)
           (-70.0 70.0)
           (-70.0 60.0)
  end
  begin
     id 8 
     name rtibia
     direction -0.34202 -0.939693 0   
     length 7.27262   
     axis 0 0 -20   XYZ
    dof rx
    limits (-10.0 170.0)
 end
 begin
     id 9 
     name rfoot
     direction -0.0455203 -0.125066 0.991104   
     length 1.91095  
     axis -90 -7.62852e-016 -20   XYZ
    dof rx rz
    limits (-45.0 90.0)
           (-20.0 70.0)
  end
  begin
     id 10 
     name rtoes
     direction -1.53601e-011 -4.21913e-011 1   
     length 0.969037   
     axis -90 -7.62852e-016 -20   XYZ
    dof rx
    limits (-90.0 20.0)
  end
  begin
     id 11 
     name lowerback
     direction 0.0181546 0.999122 -0.0377542   
     length 1.99916   
     axis 0 0 0   XYZ
    dof rx ry rz
    limits (-20.0 45.0)
           (-30.0 30.0)
           (-30.0 30.0)
  end
  begin
     id 12 
     name upperback
     direction 0.0203486 0.99589 0.0882534   
     length 1.951   
     axis 0 0 0   XYZ
    dof rx ry rz
    limits (-20.0 45.0)
           (-30.0 30.0)
           (-30.0 30.0)
  end
  begin
     id 13 
     name thorax
     direction 0.0131685 0.994241 0.106355   
     length 1.97461   
     axis 0 0 0   XYZ
    dof rx ry rz
    limits (-20.0 45.0)
           (-30.0 30.0)
           (-30.0 30.0)
  end
  begin
     id 14 
     name lowerneck
     direction -0.0281395 0.999325 0.023617   
     length 1.7959   
     axis 0 0 0   XYZ
    dof rx ry rz
    limits (-20.0 45.0)
           (-30.0 30.0)
           (-30.0 30.0)
  end
  begin
     id 15 
     name upperneck
     direction 0.0288721 0.991984 -0.123019   
     length 1.79917   
     axis 0 0 0   XYZ
    dof rx ry rz
    limits (-20.0 45.0)
           (-30.0 30.0)
           (-30.0 30.0)
  end
  begin
     id 16
     name head
     direction 0.0133797 0.998944 -0.0439492  
     length 1.80902  
     axis 0 0 0   XYZ
    dof rx ry rz
    limits (-20.0 45.0)
           (-30.0 30.0)
           (-30.0 30.0)
  end
  begin
     id 17 
     name lclavicle
     direction 0.919195 0.377107 0.113449  
     length 3.17815  
     axis 0 0 0   XYZ
    dof ry rz
    limits (-20.0 10.0)
           (0.0 20.0)
  end
  begin
     id 18 
     name lhumerus
     direction 1 -4.48959e-011 2.13129e-027   
     length 4.84137   
     axis 180 -30 -90   XYZ
    dof rx ry rz
    limits (-60.0 90.0)
           (-90.0 90.0)
           (-90.0 90.0)
  end
  begin
     id 19
     name lradius
     direction 1 -4.48957e-011 -6.30627e-028   
     length 3.2452   
     axis 180 -30 -90   XYZ
    dof rx
    limits (-10.0 170.0)
  end
  begin
     id 20
     name lwrist
     direction 1 -4.4901e-011 9.13299e-027   
     length 1.6226   
     axis -6.84618e-015 90 90   XYZ
    dof ry
    limits (-180.0 0.0)
 end
  begin
     id 21 
     name lhand
     direction 1 -4.48816e-011 1.82293e-026   
     length 0.521221   
     axis -1.16502e-014 90 90   XYZ
    dof rx rz
    limits (-90.0 90.0)
           (-45.0 45.0)
  end
  begin
     id 22 
     name lfingers
     direction 1 -4.49108e-011 3.65687e-026   
     length 0.420221   
     axis -2.33008e-014 90 90   XYZ
    dof rx
    limits (0.0 90.0)
  end
  begin
     id 23
     name lthumb
     direction 0.707107 -6.34943e-011 0.707107   
     length 0.603356   
     axis -90 45 5.69224e-014   XYZ
    dof rx rz
    limits (-45.0 45.0)
           (-45.0 45.0)
  end
  begin
     id 24 
     name rclavicle
     direction -0.90847 0.38596 0.160368   
     length 3.12973  
     axis 0 0 0   XYZ 
    dof ry rz
    limits (-10.0 20.0)
           (-20.0 0.0)
  end
  begin
     id 25 
     name rhumerus
     direction -1 -4.48974e-011 4.47268e-028  
     length 4.72284   
     axis 180 30 90   XYZ
    dof rx ry rz
    limits (-90.0 60.0)
           (-90.0 90.0)
           (-90.0 90.0)
  end
  begin
     id 26 
     name rradius
     direction -1 -4.48969e-011 3.43203e-027   
     length 3.23459   
     axis 180 30 90   XYZ
    dof rx
    limits (-10.0 170.0)
  end
  begin
     id 27 
     name rwrist
     direction -1 -4.48969e-011 9.12911e-027   
     length 1.6173   
     axis -6.84618e-015 -90 -90   XYZ
    dof ry
    limits (-180.0 0.0)
  end
  begin
     id 28
     name rhand
     direction -1 -4.49194e-011 1.83006e-026   
     length 0.307416   
     axis -1.16502e-014 -90 -90   XYZ
    dof rx rz
    limits (-90.0 90.0)
           (-45.0 45.0)
  end
  begin
     id 29
     name rfingers
     direction -1 -4.48423e-011 3.63103e-026   
     length 0.247847   
     axis -2.33008e-014 -90 -90   XYZ
    dof rx
    limits (0.0 90.0)
  end
  begin
     id 30
     name rthumb
     direction -0.707107 -6.34802e-011 0.707107   
     length 0.35586   
     axis -90 -45 -5.69224e-014   XYZ
    dof rx rz
    limits (-45.0 45.0)
           (-45.0 45.0)
  end
:hierarchy
  begin
    root lhipjoint rhipjoint lowerback
    lhipjoint lfemur
    lfemur ltibia
    ltibia lfoot
    lfoot ltoes
    rhipjoint rfemur
    rfemur rtibia
    rtibia rfoot
    rfoot rtoes
    lowerback upperback
    upperback thorax
    thorax lowerneck lclavicle rclavicle
    lowerneck upperneck
    upperneck head
    lclavicle lhumerus
    lhumerus lradius
    lradius lwrist
    lwrist lhand lthumb
    lhand lfingers
    rclavicle rhumerus
    rhumerus rradius
    rradius rwrist
    rwrist rhand rthumb
    rhand rfingers
  end

#!OML:ASF H:\Terrain\Patient Classification 1\Animal1\Tuesday\Animal1.ASF
:FULLY-SPECIFIED
:DEGREES
634
root 20.1383 16.4241 -6.45891 -170.132 1.23499 184.877
lowerback -4.56595 -0.792264 2.44131
upperback -6.71862 -0.475593 0.97025
thorax -4.40955 -0.0727985 -0.384795
lowerneck -8.10721 4.00767 0.0292519
upperneck 28.3681 7.10441 4.53203
head 10.1883 4.73273 2.53764
rclavicle -5.71506e-015 -4.77083e-015
rhumerus -46.0769 6.27675 -84.2269
rradius 23.277
rwrist -9.02268
rhand -17.9971 28.956
rfingers 7.12502
rthumb 8.27316 -0.862034
lclavicle -5.71506e-015 -4.77083e-015
lhumerus -41.4167 13.2716 78.1778
lradius 28.2171
lwrist -27.649
lhand 0.65749 40.6822
lfingers 7.12502
lthumb 26.22 68.8909
rfemur -25.86 17.18 23.1225
rtibia 28.3865
rfoot -3.11123 -24.0647
rtoes -6.60387
lfemur -16.9273 -3.4884 -18.835
ltibia 63.2932
lfoot 10.9476 -2.88548
ltoes 1.7852
635
root 20.1771 16.4222 -6.58757 -170.205 0.951409 185.281
lowerback -4.45912 -0.699956 2.82206
upperback -6.63245 -0.361125 1.06299
thorax -4.38161 -0.0334543 -0.500492
lowerneck -8.38381 4.04839 0.117552
upperneck 28.5208 7.15491 4.55337
head 10.3001 4.77031 2.55622
rclavicle -3.2054e-015 3.18055e-015
rhumerus -46.0225 6.57993 -84.2122
rradius 23.8674
rwrist -9.44855
rhand -17.7965 28.0567
rfingers 7.12502
rthumb 8.46673 -1.75362
lclavicle -3.2054e-015 3.18055e-015
lhumerus -41.2648 13.5962 78.0714
lradius 27.8273
lwrist -28.5066
lhand 1.56763 41.0566
lfingers 7.12502
lthumb 27.091 69.1329
rfemur -24.9622 17.0337 23.922
rtibia 28.0771
rfoot -4.50277 -24.1121
rtoes -3.50358
lfemur -18.6868 -3.08887 -18.4493
ltibia 65.7853
lfoot 10.0646 -3.22715
ltoes 1.47136
636
root 20.212 16.4226 -6.71567 -170.227 0.759447 185.494
lowerback -4.41252 -0.53428 3.04656
upperback -6.56247 -0.151067 1.0458
thorax -4.33082 0.0583859 -0.642432
lowerneck -8.40502 4.07233 0.335752
upperneck 28.3331 7.15551 4.43206
head 10.2497 4.77007 2.46847
rclavicle -6.70898e-016 7.95139e-016
rhumerus -45.9493 6.89853 -84.2971
rradius 24.3675
rwrist -9.98208
rhand -17.8141 27.5328
rfingers 7.12502
rthumb 8.44975 -2.27821
lclavicle -6.70898e-016 7.95139e-016
lhumerus -41.1029 13.4417 78.1635
lradius 27.6471
lwrist -29.0617
lhand 2.83171 41.4849
lfingers 7.12502
lthumb 28.2997 69.3669
rfemur -24.2247 16.7048 24.5332
rtibia 27.8402
rfoot -4.61145 -24.1295
rtoes -3.88978
lfemur -20.3632 -2.7444 -18.3388
ltibia 67.9048
lfoot 9.33113 -2.40488
ltoes 4.06522
637
root 20.2469 16.4258 -6.84432 -170.276 0.653117 185.708
lowerback -4.3268 -0.43251 3.17574
upperback -6.49828 -0.0208306 1.09919
thorax -4.30837 0.116489 -0.658565
lowerneck -8.17696 4.16865 0.445342
upperneck 27.8432 7.22204 4.37932
head 10.0308 4.78369 2.40196
rclavicle 1.02374e-014 -2.10712e-014
rhumerus -45.9434 7.70784 -84.5836
rradius 24.8155
rwrist -10.8696
rhand -18.4306 28.3317
rfingers 7.12502
rthumb 7.85472 -1.50235
lclavicle 1.02374e-014 -2.10712e-014
lhumerus -41.0741 13.6198 78.1152
lradius 27.4012
lwrist -29.3438
lhand 3.84801 41.3875
lfingers 7.12502
lthumb 29.2706 69.1044
rfemur -23.5314 16.5743 25.119
rtibia 27.7338
rfoot -4.31591 -24.3776
rtoes -6.91326
lfemur -21.9817 -2.28881 -18.2723
ltibia 69.6862
lfoot 8.52581 -1.18988
ltoes 6.55685
638
root 20.2775 16.4286 -6.96987 -170.384 0.643188 185.777
lowerback -4.17641 -0.333057 3.22333
upperback -6.37369 0.0934417 1.09897
thorax -4.25772 0.164083 -0.684461
lowerneck -8.18479 4.28921 0.450783
upperneck 27.5152 7.3075 4.47267
head 9.90653 4.81239 2.4235
rclavicle 7.45443e-017 -4.77083e-015
rhumerus -45.7037 8.28872 -84.7127
rradius 25.0954
rwrist -11.3856
rhand -18.8063 28.9632
rfingers 7.12502
rthumb 7.49211 -0.884078
lclavicle 7.45443e-017 -4.77083e-015
lhumerus -41.0349 13.8592 78.092
lradius 27.1478
lwrist -29.9318
lhand 4.47443 41.3716
lfingers 7.12502
lthumb 29.8686 68.9826
rfemur -22.7661 16.6051 25.4844
rtibia 27.5707
rfoot -5.10519 -24.5187
rtoes -6.21804
lfemur -23.4408 -1.73869 -18.4097
ltibia 71.134
lfoot 7.34173 -0.386688
ltoes 5.82214
639
root 20.3074 16.4358 -7.09939 -170.525 0.705589 185.663
lowerback -4.0213 -0.153111 3.14269
upperback -6.25665 0.308312 0.948804
thorax -4.2123 0.261746 -0.793535
lowerneck -8.20716 4.33926 0.563849
upperneck 27.3565 7.2947 4.64825
head 9.85055 4.83035 2.45658
rclavicle -8.69683e-016 4.37326e-015
rhumerus -45.4664 8.40489 -84.72
rradius 25.324
rwrist -11.287
rhand -19.056 28.8077
rfingers 7.12502
rthumb 7.25114 -1.04805
lclavicle -8.69683e-016 4.37326e-015
lhumerus -40.9641 13.5785 78.2054
lradius 26.922
lwrist -30.4972
lhand 4.78573 42.0275
lfingers 7.12502
lthumb 30.1656 69.5847
rfemur -22.0598 16.7291 25.6393
rtibia 27.6872
rfoot -5.53213 -24.8334
rtoes -5.8699
lfemur -24.7739 -1.34823 -18.7684
ltibia 72.1973
lfoot 6.15493 0.594695
ltoes 7.57881
